<?xml version="1.0" encoding="UTF-8"?>
<svg xmlns="http://www.w3.org/2000/svg" xmlns:xlink="http://www.w3.org/1999/xlink" width="300pt" height="299.999988pt" viewBox="0 0 300 299.999988" version="1.2">
<defs>
<clipPath id="clip1">
  <path d="M 47.445312 2.726562 L 252 2.726562 L 252 297.476562 L 47.445312 297.476562 Z M 47.445312 2.726562 "/>
</clipPath>
</defs>
<g id="surface1">
<path style=" stroke:none;fill-rule:nonzero;fill:rgb(79.219055%,76.858521%,98.039246%);fill-opacity:1;" d="M 180.957031 99.996094 L 180.957031 28.074219 L 194.1875 28.074219 L 194.1875 5.085938 L 105.390625 5.085938 L 105.390625 28.074219 L 118.621094 28.074219 L 118.621094 99.996094 C 78.808594 113.140625 49.996094 150.691406 49.996094 195.082031 C 49.996094 250.316406 94.6875 295.121094 149.789062 295.121094 C 204.890625 295.121094 249.585938 250.316406 249.585938 195.082031 C 249.644531 150.691406 220.828125 113.140625 180.957031 99.996094 Z M 180.957031 99.996094 "/>
<g clip-path="url(#clip1)" clip-rule="nonzero">
<path style=" stroke:none;fill-rule:nonzero;fill:rgb(6.669617%,7.449341%,17.649841%);fill-opacity:1;" d="M 149.789062 297.476562 C 93.453125 297.476562 47.644531 251.554688 47.644531 195.082031 C 47.644531 151.28125 75.164062 112.609375 116.269531 98.285156 L 116.269531 30.433594 L 105.390625 30.433594 C 104.097656 30.433594 103.039062 29.371094 103.039062 28.074219 L 103.039062 5.085938 C 103.039062 3.789062 104.097656 2.726562 105.390625 2.726562 L 194.1875 2.726562 C 195.484375 2.726562 196.542969 3.789062 196.542969 5.085938 L 196.542969 28.074219 C 196.542969 29.371094 195.484375 30.433594 194.1875 30.433594 L 183.308594 30.433594 L 183.308594 98.285156 C 224.417969 112.609375 251.9375 151.222656 251.9375 195.023438 C 251.996094 251.554688 206.128906 297.476562 149.789062 297.476562 Z M 107.742188 25.71875 L 118.621094 25.71875 C 119.917969 25.71875 120.976562 26.777344 120.976562 28.074219 L 120.976562 99.996094 C 120.976562 100.996094 120.328125 101.941406 119.328125 102.234375 C 79.28125 115.441406 52.347656 152.753906 52.347656 195.082031 C 52.347656 248.902344 96.039062 292.761719 149.789062 292.761719 C 203.539062 292.761719 247.234375 248.902344 247.234375 195.082031 C 247.234375 152.753906 220.300781 115.441406 180.191406 102.292969 C 179.253906 102 178.605469 101.054688 178.605469 100.054688 L 178.605469 28.074219 C 178.605469 26.777344 179.664062 25.71875 180.957031 25.71875 L 191.835938 25.71875 L 191.835938 7.441406 L 107.742188 7.441406 Z M 107.742188 25.71875 "/>
</g>
<path style=" stroke:none;fill-rule:nonzero;fill:rgb(95.289612%,92.158508%,98.039246%);fill-opacity:1;" d="M 65.167969 195.671875 C 65.167969 242.183594 102.804688 279.910156 149.203125 279.910156 C 195.601562 279.910156 233.238281 242.183594 233.238281 195.671875 C 233.296875 195.671875 65.167969 193.902344 65.167969 195.671875 Z M 65.167969 195.671875 "/>
<path style=" stroke:none;fill-rule:nonzero;fill:rgb(6.669617%,7.449341%,17.649841%);fill-opacity:1;" d="M 149.261719 282.269531 C 101.628906 282.269531 62.875 243.421875 62.875 195.671875 C 62.875 195.023438 63.167969 194.433594 63.578125 193.960938 C 64.460938 193.078125 65.992188 191.542969 233.355469 193.3125 C 234.648438 193.3125 235.707031 194.375 235.707031 195.671875 C 235.648438 243.421875 196.894531 282.269531 149.261719 282.269531 Z M 67.578125 197.675781 C 68.636719 241.886719 104.863281 277.550781 149.261719 277.550781 C 193.542969 277.550781 229.707031 242.0625 230.945312 197.96875 C 170.019531 197.378906 81.398438 196.789062 67.578125 197.675781 Z M 67.578125 197.675781 "/>
<path style=" stroke:none;fill-rule:nonzero;fill:rgb(6.669617%,7.449341%,17.649841%);fill-opacity:1;" d="M 154.140625 30.667969 L 127.738281 30.667969 C 126.445312 30.667969 125.386719 29.609375 125.386719 28.3125 C 125.386719 27.015625 126.445312 25.953125 127.738281 25.953125 L 154.140625 25.953125 C 155.4375 25.953125 156.496094 27.015625 156.496094 28.3125 C 156.496094 29.609375 155.4375 30.667969 154.140625 30.667969 Z M 154.140625 30.667969 "/>
<path style=" stroke:none;fill-rule:nonzero;fill:rgb(6.669617%,7.449341%,17.649841%);fill-opacity:1;" d="M 175.78125 30.789062 L 162.082031 30.789062 C 160.785156 30.789062 159.730469 29.726562 159.730469 28.429688 C 159.730469 27.132812 160.785156 26.070312 162.082031 26.070312 L 175.78125 26.070312 C 177.078125 26.070312 178.136719 27.132812 178.136719 28.429688 C 178.136719 29.726562 177.078125 30.789062 175.78125 30.789062 Z M 175.78125 30.789062 "/>
<path style=" stroke:none;fill-rule:nonzero;fill:rgb(6.669617%,7.449341%,17.649841%);fill-opacity:1;" d="M 172.902344 89.148438 C 171.609375 89.148438 170.550781 88.085938 170.550781 86.789062 L 170.550781 28.429688 C 170.550781 27.132812 171.609375 26.070312 172.902344 26.070312 C 174.195312 26.070312 175.253906 27.132812 175.253906 28.429688 L 175.253906 86.789062 C 175.253906 88.144531 174.195312 89.148438 172.902344 89.148438 Z M 172.902344 89.148438 "/>
<path style=" stroke:none;fill-rule:nonzero;fill:rgb(6.669617%,7.449341%,17.649841%);fill-opacity:1;" d="M 165.316406 62.679688 C 164.019531 62.679688 162.964844 61.617188 162.964844 60.320312 L 162.964844 29.078125 C 162.964844 27.78125 164.019531 26.71875 165.316406 26.71875 C 166.609375 26.71875 167.667969 27.78125 167.667969 29.078125 L 167.667969 60.320312 C 167.667969 61.617188 166.609375 62.679688 165.316406 62.679688 Z M 165.316406 62.679688 "/>
<path style=" stroke:none;fill-rule:nonzero;fill:rgb(6.669617%,7.449341%,17.649841%);fill-opacity:1;" d="M 151.789062 50.949219 C 150.496094 50.949219 149.4375 49.886719 149.4375 48.589844 L 149.4375 29.726562 C 149.4375 28.429688 150.496094 27.367188 151.789062 27.367188 C 153.082031 27.367188 154.140625 28.429688 154.140625 29.726562 L 154.140625 48.648438 C 154.140625 49.886719 153.082031 50.949219 151.789062 50.949219 Z M 151.789062 50.949219 "/>
<path style=" stroke:none;fill-rule:nonzero;fill:rgb(6.669617%,7.449341%,17.649841%);fill-opacity:1;" d="M 165.199219 73.289062 C 163.902344 73.289062 162.84375 72.230469 162.84375 70.933594 L 162.84375 67.335938 C 162.84375 66.039062 163.902344 64.976562 165.199219 64.976562 C 166.492188 64.976562 167.550781 66.039062 167.550781 67.335938 L 167.550781 70.933594 C 167.550781 72.230469 166.492188 73.289062 165.199219 73.289062 Z M 165.199219 73.289062 "/>
<path style=" stroke:none;fill-rule:nonzero;fill:rgb(6.669617%,7.449341%,17.649841%);fill-opacity:1;" d="M 151.847656 59.082031 C 150.554688 59.082031 149.496094 58.023438 149.496094 56.726562 L 149.496094 54.601562 C 149.496094 53.304688 150.554688 52.246094 151.847656 52.246094 C 153.140625 52.246094 154.199219 53.304688 154.199219 54.601562 L 154.199219 56.726562 C 154.199219 58.023438 153.140625 59.082031 151.847656 59.082031 Z M 151.847656 59.082031 "/>
<path style=" stroke:none;fill-rule:nonzero;fill:rgb(6.669617%,7.449341%,17.649841%);fill-opacity:1;" d="M 103.625 125.757812 C 102.804688 125.757812 101.980469 125.285156 101.570312 124.519531 C 100.921875 123.398438 101.390625 121.925781 102.507812 121.335938 L 104.332031 120.332031 C 105.449219 119.683594 106.921875 120.15625 107.507812 121.277344 C 108.15625 122.394531 107.683594 123.871094 106.566406 124.460938 L 104.746094 125.460938 C 104.390625 125.695312 103.980469 125.757812 103.625 125.757812 Z M 103.625 125.757812 "/>
<path style=" stroke:none;fill-rule:nonzero;fill:rgb(6.669617%,7.449341%,17.649841%);fill-opacity:1;" d="M 86.867188 157.472656 C 86.457031 157.472656 85.984375 157.351562 85.574219 157.117188 C 84.457031 156.410156 84.160156 154.9375 84.867188 153.875 L 85.984375 152.105469 C 86.691406 150.988281 88.160156 150.691406 89.21875 151.398438 C 90.335938 152.105469 90.628906 153.582031 89.925781 154.640625 L 88.808594 156.410156 C 88.394531 157.058594 87.691406 157.472656 86.867188 157.472656 Z M 86.867188 157.472656 "/>
<path style=" stroke:none;fill-rule:nonzero;fill:rgb(6.669617%,7.449341%,17.649841%);fill-opacity:1;" d="M 172.902344 100.761719 C 171.609375 100.761719 170.550781 99.699219 170.550781 98.402344 L 170.550781 93.628906 C 170.550781 92.332031 171.609375 91.269531 172.902344 91.269531 C 174.195312 91.269531 175.253906 92.332031 175.253906 93.628906 L 175.253906 98.402344 C 175.253906 99.699219 174.195312 100.761719 172.902344 100.761719 Z M 172.902344 100.761719 "/>
<path style=" stroke:none;fill-rule:nonzero;fill:rgb(6.669617%,7.449341%,17.649841%);fill-opacity:1;" d="M 74.339844 163.308594 C 74.164062 163.308594 73.988281 163.308594 73.8125 163.25 C 72.519531 162.953125 71.753906 161.714844 72.046875 160.417969 C 74.457031 149.570312 80.632812 134.65625 96.21875 124.929688 C 97.335938 124.222656 98.746094 124.578125 99.453125 125.695312 C 100.15625 126.816406 99.804688 128.230469 98.6875 128.9375 C 84.515625 137.78125 78.871094 151.457031 76.632812 161.421875 C 76.398438 162.539062 75.398438 163.308594 74.339844 163.308594 Z M 74.339844 163.308594 "/>
<path style=" stroke:none;fill-rule:nonzero;fill:rgb(6.669617%,7.449341%,17.649841%);fill-opacity:1;" d="M 70.636719 188.242188 C 69.34375 188.242188 68.285156 187.183594 68.285156 185.886719 L 68.285156 185.648438 C 68.167969 179.164062 69.046875 173.445312 69.871094 169.792969 C 70.164062 168.496094 71.402344 167.667969 72.695312 167.964844 C 73.988281 168.257812 74.753906 169.496094 74.515625 170.792969 C 73.753906 174.210938 72.929688 179.519531 73.046875 185.53125 L 73.046875 185.824219 C 72.988281 187.183594 71.988281 188.242188 70.636719 188.242188 Z M 70.636719 188.242188 "/>
<path style=" stroke:none;fill-rule:nonzero;fill:rgb(6.669617%,7.449341%,17.649841%);fill-opacity:1;" d="M 79.222656 188.65625 C 77.929688 188.65625 76.871094 187.59375 76.871094 186.296875 C 76.871094 186.121094 77.105469 168.023438 81.632812 159.652344 C 82.28125 158.53125 83.691406 158.058594 84.808594 158.707031 C 85.925781 159.296875 86.394531 160.773438 85.75 161.890625 C 82.28125 168.316406 81.515625 183.703125 81.574219 186.296875 C 81.574219 187.59375 80.515625 188.65625 79.222656 188.65625 Z M 79.222656 188.65625 "/>
<path style=" stroke:none;fill-rule:nonzero;fill:rgb(6.669617%,7.449341%,17.649841%);fill-opacity:1;" d="M 190.484375 259.042969 C 189.660156 259.042969 188.839844 258.570312 188.425781 257.804688 C 187.78125 256.683594 188.25 255.210938 189.367188 254.621094 L 190.894531 253.796875 C 192.011719 253.148438 193.484375 253.617188 194.070312 254.738281 C 194.71875 255.859375 194.25 257.332031 193.128906 257.921875 L 191.601562 258.746094 C 191.25 258.984375 190.894531 259.042969 190.484375 259.042969 Z M 190.484375 259.042969 "/>
<path style=" stroke:none;fill-rule:nonzero;fill:rgb(6.669617%,7.449341%,17.649841%);fill-opacity:1;" d="M 205.246094 232.867188 C 204.832031 232.867188 204.363281 232.75 203.953125 232.515625 C 202.832031 231.808594 202.539062 230.332031 203.246094 229.273438 L 204.1875 227.796875 C 204.890625 226.679688 206.363281 226.382812 207.421875 227.089844 C 208.539062 227.796875 208.832031 229.273438 208.125 230.332031 L 207.1875 231.808594 C 206.773438 232.515625 206.007812 232.867188 205.246094 232.867188 Z M 205.246094 232.867188 "/>
<path style=" stroke:none;fill-rule:nonzero;fill:rgb(6.669617%,7.449341%,17.649841%);fill-opacity:1;" d="M 197.304688 255.210938 C 196.542969 255.210938 195.777344 254.796875 195.308594 254.089844 C 194.601562 252.96875 194.953125 251.554688 196.070312 250.847656 C 208.007812 243.421875 212.714844 231.925781 214.59375 223.554688 C 214.890625 222.257812 216.125 221.492188 217.417969 221.785156 C 218.710938 222.082031 219.476562 223.316406 219.183594 224.613281 C 217.125 233.871094 211.832031 246.601562 198.542969 254.914062 C 198.128906 255.09375 197.71875 255.210938 197.304688 255.210938 Z M 197.304688 255.210938 "/>
<path style=" stroke:none;fill-rule:nonzero;fill:rgb(6.669617%,7.449341%,17.649841%);fill-opacity:1;" d="M 218.710938 218.484375 C 218.535156 218.484375 218.359375 218.484375 218.183594 218.425781 C 216.890625 218.128906 216.125 216.890625 216.359375 215.59375 C 217.007812 212.707031 217.710938 208.285156 217.59375 203.15625 C 217.59375 203.15625 217.59375 202.921875 217.59375 202.863281 C 217.59375 201.566406 218.652344 200.503906 219.945312 200.503906 C 221.242188 200.503906 222.300781 201.566406 222.300781 202.863281 L 219.945312 202.863281 L 222.300781 203.039062 C 222.417969 208.582031 221.652344 213.414062 220.945312 216.539062 C 220.769531 217.777344 219.769531 218.484375 218.710938 218.484375 Z M 218.710938 218.484375 "/>
<path style=" stroke:none;fill-rule:nonzero;fill:rgb(6.669617%,7.449341%,17.649841%);fill-opacity:1;" d="M 208.949219 226.621094 C 208.597656 226.621094 208.183594 226.5 207.832031 226.324219 C 206.714844 225.734375 206.246094 224.261719 206.890625 223.140625 C 209.773438 217.777344 210.421875 204.808594 210.421875 202.625 C 210.421875 201.328125 211.480469 200.269531 212.773438 200.269531 C 214.066406 200.269531 215.125 201.328125 215.125 202.625 C 215.125 202.804688 214.832031 218.308594 211.066406 225.382812 C 210.597656 226.148438 209.773438 226.621094 208.949219 226.621094 Z M 208.949219 226.621094 "/>
<path style=" stroke:none;fill-rule:nonzero;fill:rgb(79.219055%,76.858521%,98.039246%);fill-opacity:1;" d="M 105.683594 219.25 C 104.390625 219.25 103.332031 218.191406 103.332031 216.890625 L 103.332031 205.160156 C 103.332031 203.863281 104.390625 202.804688 105.683594 202.804688 C 106.980469 202.804688 108.039062 203.863281 108.039062 205.160156 L 108.039062 216.890625 C 108.039062 218.191406 106.980469 219.25 105.683594 219.25 Z M 105.683594 219.25 "/>
<path style=" stroke:none;fill-rule:nonzero;fill:rgb(79.219055%,76.858521%,98.039246%);fill-opacity:1;" d="M 111.859375 213.414062 L 99.511719 213.414062 C 98.214844 213.414062 97.15625 212.351562 97.15625 211.054688 C 97.15625 209.757812 98.214844 208.699219 99.511719 208.699219 L 111.859375 208.699219 C 113.152344 208.699219 114.210938 209.757812 114.210938 211.054688 C 114.210938 212.351562 113.152344 213.414062 111.859375 213.414062 Z M 111.859375 213.414062 "/>
<path style=" stroke:none;fill-rule:nonzero;fill:rgb(95.289612%,92.158508%,98.039246%);fill-opacity:1;" d="M 194.542969 137.488281 C 193.25 137.488281 192.191406 136.425781 192.191406 135.128906 L 192.191406 123.457031 C 192.191406 122.160156 193.25 121.097656 194.542969 121.097656 C 195.835938 121.097656 196.894531 122.160156 196.894531 123.457031 L 196.894531 135.128906 C 196.894531 136.425781 195.835938 137.488281 194.542969 137.488281 Z M 194.542969 137.488281 "/>
<path style=" stroke:none;fill-rule:nonzero;fill:rgb(95.289612%,92.158508%,98.039246%);fill-opacity:1;" d="M 200.71875 131.59375 L 188.367188 131.59375 C 187.074219 131.59375 186.015625 130.53125 186.015625 129.234375 C 186.015625 127.9375 187.074219 126.875 188.367188 126.875 L 200.71875 126.875 C 202.011719 126.875 203.070312 127.9375 203.070312 129.234375 C 203.070312 130.53125 202.011719 131.59375 200.71875 131.59375 Z M 200.71875 131.59375 "/>
<path style=" stroke:none;fill-rule:nonzero;fill:rgb(79.219055%,76.858521%,98.039246%);fill-opacity:1;" d="M 120.386719 241.652344 C 119.09375 241.652344 118.035156 240.589844 118.035156 239.292969 L 118.035156 227.621094 C 118.035156 226.324219 119.09375 225.261719 120.386719 225.261719 C 121.679688 225.261719 122.738281 226.324219 122.738281 227.621094 L 122.738281 239.292969 C 122.738281 240.589844 121.679688 241.652344 120.386719 241.652344 Z M 120.386719 241.652344 "/>
<path style=" stroke:none;fill-rule:nonzero;fill:rgb(79.219055%,76.858521%,98.039246%);fill-opacity:1;" d="M 126.5625 235.816406 L 114.210938 235.816406 C 112.917969 235.816406 111.859375 234.753906 111.859375 233.457031 C 111.859375 232.160156 112.917969 231.097656 114.210938 231.097656 L 126.5625 231.097656 C 127.855469 231.097656 128.914062 232.160156 128.914062 233.457031 C 128.914062 234.753906 127.855469 235.816406 126.5625 235.816406 Z M 126.5625 235.816406 "/>
<path style=" stroke:none;fill-rule:nonzero;fill:rgb(79.219055%,76.858521%,98.039246%);fill-opacity:1;" d="M 129.324219 215.949219 C 125.679688 215.949219 122.679688 213 122.679688 209.289062 C 122.679688 205.632812 125.621094 202.625 129.324219 202.625 C 132.972656 202.625 135.96875 205.574219 135.96875 209.289062 C 135.96875 212.941406 132.972656 215.949219 129.324219 215.949219 Z M 129.324219 207.402344 C 128.265625 207.402344 127.386719 208.285156 127.386719 209.347656 C 127.386719 210.40625 128.265625 211.292969 129.324219 211.292969 C 130.382812 211.292969 131.265625 210.40625 131.265625 209.347656 C 131.265625 208.226562 130.382812 207.402344 129.324219 207.402344 Z M 129.324219 207.402344 "/>
<path style=" stroke:none;fill-rule:nonzero;fill:rgb(95.289612%,92.158508%,98.039246%);fill-opacity:1;" d="M 215.242188 156.585938 C 211.597656 156.585938 208.597656 153.640625 208.597656 149.925781 C 208.597656 146.269531 211.539062 143.265625 215.242188 143.265625 C 218.945312 143.265625 221.886719 146.210938 221.886719 149.925781 C 221.886719 153.582031 218.886719 156.585938 215.242188 156.585938 Z M 215.242188 148.039062 C 214.183594 148.039062 213.300781 148.921875 213.300781 149.984375 C 213.300781 151.046875 214.183594 151.929688 215.242188 151.929688 C 216.300781 151.929688 217.183594 151.046875 217.183594 149.984375 C 217.183594 148.921875 216.300781 148.039062 215.242188 148.039062 Z M 215.242188 148.039062 "/>
<path style=" stroke:none;fill-rule:nonzero;fill:rgb(79.219055%,76.858521%,98.039246%);fill-opacity:1;" d="M 98.511719 241.476562 C 94.863281 241.476562 91.867188 238.527344 91.867188 234.8125 C 91.867188 231.160156 94.804688 228.152344 98.511719 228.152344 C 102.214844 228.152344 105.15625 231.097656 105.15625 234.8125 C 105.097656 238.46875 102.15625 241.476562 98.511719 241.476562 Z M 98.511719 232.925781 C 97.453125 232.925781 96.570312 233.8125 96.570312 234.871094 C 96.570312 235.933594 97.453125 236.816406 98.511719 236.816406 C 99.570312 236.816406 100.453125 235.933594 100.453125 234.871094 C 100.453125 233.8125 99.570312 232.925781 98.511719 232.925781 Z M 98.511719 232.925781 "/>
</g>
</svg>
